<svg width="64" height="64" viewBox="0 0 64 64" fill="none" xmlns="http://www.w3.org/2000/svg">
  <defs>
    <radialGradient id="glow" cx="50%" cy="35%" r="60%">
      <stop offset="0%" stop-color="#1f1f24" stop-opacity="0.9" />
      <stop offset="100%" stop-color="#09090b" stop-opacity="0.85" />
    </radialGradient>
  </defs>

  <circle cx="32" cy="32" r="28" fill="url(#glow)" />
  <circle cx="32" cy="32" r="28" stroke="white" stroke-opacity="0.12" stroke-width="2" />

  <g transform="translate(8 8) scale(2)">
    <path
      d="M2 6c.6.5 1.2 1 2.5 1C7 7 7 5 9.5 5c2.6 0 2.4 2 5 2 2.5 0 2.5-2 5-2 1.3 0 1.9.5 2.5 1"
      stroke="white"
      stroke-opacity="0.92"
      stroke-width="1.2"
      stroke-linecap="round"
      stroke-linejoin="round"
    />
    <path
      d="M2 12c.6.5 1.2 1 2.5 1 2.5 0 2.5-2 5-2 2.6 0 2.4 2 5 2 2.5 0 2.5-2 5-2 1.3 0 1.9.5 2.5 1"
      stroke="white"
      stroke-opacity="0.92"
      stroke-width="1.2"
      stroke-linecap="round"
      stroke-linejoin="round"
    />
    <path
      d="M2 18c.6.5 1.2 1 2.5 1 2.5 0 2.5-2 5-2 2.6 0 2.4 2 5 2 2.5 0 2.5-2 5-2 1.3 0 1.9.5 2.5 1"
      stroke="white"
      stroke-opacity="0.92"
      stroke-width="1.2"
      stroke-linecap="round"
      stroke-linejoin="round"
    />
  </g>
</svg>
